<svg width="40" height="40" viewBox="0 0 40 40" fill="none" xmlns="http://www.w3.org/2000/svg">
<g clip-path="url(#clip0_216_22)">
<path d="M23.2823 35.5273C22.9684 35.6119 22.648 35.6874 22.3301 35.7528C21.4984 35.9222 20.9616 36.7339 21.1315 37.5657C21.141 37.6132 21.1529 37.6584 21.1665 37.7038C21.3934 38.4556 22.1603 38.9247 22.9449 38.7646C23.3243 38.687 23.7068 38.5966 24.0816 38.4957C24.9016 38.2752 25.3871 37.4316 25.1665 36.6116C24.9457 35.7907 24.1023 35.3065 23.2823 35.5273Z" fill="#FFEC40"/>
<path d="M12.567 34.6713C12.2702 34.5392 11.974 34.3962 11.6867 34.2459C10.9337 33.8534 10.0055 34.1451 9.61291 34.898C9.4191 35.2683 9.39189 35.6814 9.50387 36.0522C9.61949 36.4346 9.88255 36.7722 10.2642 36.9714C10.6071 37.1501 10.9597 37.3209 11.3133 37.4786C12.0882 37.8246 12.9974 37.4772 13.3436 36.7023C13.6899 35.9267 13.3421 35.0182 12.567 34.6713Z" fill="#FFEC40"/>
<path d="M17.8529 36.0227C17.5296 35.9967 17.2017 35.96 16.8798 35.9148C16.0391 35.795 15.2613 36.38 15.1418 37.2205C15.1094 37.449 15.1293 37.6724 15.1917 37.8794C15.3592 38.4346 15.8359 38.8711 16.4481 38.9584C16.8311 39.0125 17.221 39.0559 17.6063 39.0866C18.4527 39.1552 19.1939 38.5244 19.262 37.6784C19.33 36.832 18.6996 36.0908 17.8529 36.0227Z" fill="#FFEC40"/>
<path d="M28.2332 33.2344C27.9662 33.4182 27.6891 33.5966 27.4103 33.7649C26.7959 34.1351 26.5336 34.8673 26.7314 35.5239C26.7678 35.6442 26.8198 35.762 26.8876 35.875C27.3255 36.6021 28.2703 36.8356 28.9975 36.3979C29.329 36.1979 29.6584 35.9852 29.9759 35.7669C30.675 35.2856 30.8522 34.3285 30.3708 33.6294C29.8896 32.9297 28.9322 32.7532 28.2332 33.2344Z" fill="#FFEC40"/>
<path d="M34.2755 29.0775C33.587 28.5811 32.6263 28.7368 32.1297 29.4249C31.9401 29.6882 31.7394 29.9493 31.5338 30.1999C31.1967 30.6116 31.1091 31.1453 31.2517 31.6192C31.3371 31.9012 31.504 32.1625 31.7489 32.3633C32.4056 32.9011 33.374 32.8045 33.9118 32.1477C34.1572 31.8487 34.3968 31.5373 34.6228 31.2234C35.1194 30.5349 34.964 29.5744 34.2755 29.0775Z" fill="#FFEC40"/>
<path d="M36.4272 23.4786C35.6125 23.2406 34.759 23.7087 34.5213 24.5236C34.43 24.8357 34.3282 25.1491 34.2193 25.4549C34.1037 25.7767 34.1019 26.1123 34.194 26.4163C34.3299 26.8673 34.6702 27.2496 35.1469 27.4203C35.9462 27.707 36.8258 27.2918 37.1129 26.4929C37.2433 26.1285 37.3643 25.7555 37.4723 25.3842C37.7098 24.5697 37.242 23.7159 36.4272 23.4786Z" fill="#FFEC40"/>
<path d="M39.3114 13.4637L37.2912 14.0914C35.7581 9.39334 32.5302 5.53269 28.1612 3.18797C27.7214 2.95178 27.2753 2.73475 26.8237 2.53531C26.8205 2.53375 26.8179 2.53245 26.8148 2.53046C26.7959 2.52248 26.7761 2.51503 26.7577 2.50688C22.7744 0.763945 18.3664 0.433542 14.1409 1.57782C14.1077 1.58432 14.0745 1.59056 14.0418 1.59983C13.9007 1.63832 13.7583 1.68001 13.6178 1.72196C13.3871 1.79164 13.1551 1.8667 12.9275 1.9448C12.9005 1.95407 12.8751 1.9656 12.849 1.976C9.07707 3.28262 5.865 5.69165 3.5735 8.91039C3.56535 8.92148 3.55616 8.93102 3.54845 8.94203C3.32448 9.25657 3.10754 9.58272 2.90264 9.91174C2.88981 9.9328 2.87915 9.95473 2.86693 9.97649C2.66255 10.3079 2.46614 10.647 2.28014 10.9928C0.38093 14.5323 -0.343582 18.487 0.150723 22.3934C0.15185 22.4023 0.15289 22.4106 0.15367 22.4195C0.15445 22.4257 0.155837 22.4322 0.15731 22.4387C0.291656 23.4823 0.512329 24.5225 0.82219 25.5499C1.63589 28.2476 2.99365 30.6734 4.85749 32.7602C5.42287 33.3931 6.39466 33.4477 7.02791 32.8823C7.6608 32.3167 7.71602 31.3447 7.15021 30.712C6.21976 29.6707 5.44107 28.5271 4.8178 27.2949C4.81112 27.2797 4.80523 27.2642 4.79795 27.2497C4.65138 26.959 4.51209 26.661 4.38312 26.3627C4.38243 26.3604 4.38165 26.359 4.38061 26.3571C4.1459 25.8081 3.94126 25.243 3.76583 24.6623C1.75125 17.9827 4.32046 10.9931 9.65206 7.08511C9.73094 7.02773 9.80972 6.96984 9.88938 6.91419C11.2581 5.94881 12.802 5.1833 14.4916 4.67383C16.192 4.16124 17.9115 3.94594 19.5956 3.99638C19.6228 3.9976 19.6493 3.99838 19.6762 3.99916C19.779 4.00228 19.8815 4.00774 19.9837 4.01346C20.0251 4.01562 20.0663 4.01788 20.1075 4.02048C25.3589 4.34897 30.2013 7.26557 32.9197 11.8476C32.9212 11.8502 32.9222 11.8532 32.9241 11.8558C32.9644 11.9238 33.0037 11.9918 33.0432 12.0606C33.0479 12.0683 33.053 12.0751 33.0575 12.083C33.5777 12.9951 34.0153 13.9711 34.3557 15.004L32.3356 15.6321C31.7746 15.8064 31.7194 16.21 32.2118 16.5292L36.6078 19.3766C37.1007 19.696 37.6885 19.5131 37.9132 18.9713L39.9216 14.1331C40.146 13.5909 39.872 13.2895 39.3114 13.4637Z" fill="#FFEC40"/>
<path d="M13.4597 20.0417C11.9783 21.1392 10.9679 22.0912 10.4293 22.8977C9.89118 23.704 9.56841 24.5648 9.4624 25.4802H18.7309V22.9621H13.9069C14.1901 22.6836 14.4366 22.4589 14.6465 22.2873C14.8565 22.1147 15.272 21.8143 15.8942 21.3843C16.9407 20.6461 17.6627 19.9685 18.0597 19.3514C18.4564 18.7348 18.655 18.0875 18.655 17.4099C18.655 16.7729 18.4819 16.1975 18.1356 15.684C17.789 15.171 17.3134 14.7903 16.7093 14.5425C16.1052 14.295 15.2594 14.1708 14.172 14.1708C13.1307 14.1708 12.3156 14.3013 11.7262 14.5621C11.1375 14.8225 10.6808 15.1965 10.3574 15.684C10.0337 16.1725 9.81144 16.8512 9.68984 17.7206L12.7845 17.9708C12.8704 17.3442 13.0387 16.9066 13.2887 16.659C13.5393 16.4112 13.8611 16.2872 14.2561 16.2872C14.6351 16.2872 14.95 16.4075 15.2002 16.6477C15.4503 16.8875 15.5756 17.1772 15.5756 17.5162C15.5756 17.8299 15.4493 18.1609 15.1963 18.51C14.9434 18.8588 14.3644 19.3697 13.4597 20.0417Z" fill="#FFEC40"/>
<path d="M28.0523 25.4803V23.4019H29.4477V21.0047H28.0523V14.1709H25.3597L19.7319 20.8611V23.4019H25.3597V25.4803H28.0523ZM22.3863 21.0047L25.3597 17.506V21.0047H22.3863Z" fill="#FFEC40"/>
</g>
<defs>
<clipPath id="clip0_216_22">
<rect width="40" height="40" fill="white"/>
</clipPath>
</defs>
</svg>
