<svg width="60" height="52" viewBox="0 0 60 52" fill="none" xmlns="http://www.w3.org/2000/svg">
<path d="M30.06 0C47.1 0 60 12.1082 60 25.9609C60 42.027 44.88 52 30 52C25.08 52 19.62 50.8543 15.24 48.6149C13.71 47.8077 12.42 47.2088 10.77 47.6775L4.71 49.2399C3.18 49.6565 1.8 48.6149 2.25 47.2088L4.26 41.3761C4.59 40.5689 4.53 39.7096 4.05 39.0325C1.47 34.9184 0 30.4136 0 26.0391C0 12.3425 12.63 0 30.06 0ZM43.77 22.7321C41.64 22.7321 39.93 24.2163 39.93 26.0651C39.93 27.8878 41.64 29.3981 43.77 29.3981C45.9 29.3981 47.61 27.8878 47.61 26.0651C47.61 24.2163 45.9 22.7321 43.77 22.7321ZM29.94 22.7321C27.84 22.7061 26.1 24.2163 26.1 26.0391C26.1 27.8878 27.81 29.3721 29.94 29.3981C32.07 29.3981 33.78 27.8878 33.78 26.0651C33.78 24.2163 32.07 22.7321 29.94 22.7321ZM16.11 22.7321C13.98 22.7321 12.27 24.2163 12.27 26.0651C12.27 27.8878 14.01 29.3981 16.11 29.3981C18.24 29.3721 19.95 27.8878 19.95 26.0651C19.95 24.2163 18.24 22.7321 16.11 22.7321Z" fill="#F9F8F8"/>
</svg>
