<svg width="40" height="40" viewBox="0 0 40 40" fill="none" xmlns="http://www.w3.org/2000/svg">
<path d="M31.3477 10.4175H33.6143C33.2977 9.96745 32.9643 9.55078 32.6143 9.13412L31.3477 10.4175Z" fill="#0ACF83"/>
<path d="M30.8668 7.36719C30.4502 7.01719 30.0335 6.68385 29.5835 6.36719V8.63385L30.8668 7.36719Z" fill="#0ACF83"/>
<path d="M32.6329 9.13568L37.5495 4.21902C38.0329 3.73568 38.0329 2.93568 37.5495 2.45235C37.0662 1.96902 36.2662 1.96902 35.7829 2.45235L30.8662 7.36902C31.4995 7.91902 32.0829 8.51902 32.6329 9.13568Z" fill="#0ACF83"/>
<path d="M29.5864 5C29.5864 4.31667 29.0197 3.75 28.3364 3.75C27.6697 3.75 27.1364 4.28333 27.103 4.93333C27.9697 5.35 28.803 5.81667 29.5864 6.36667V5Z" fill="#0ACF83"/>
<path d="M36.2535 11.6667C36.2535 10.9833 35.6868 10.4167 35.0035 10.4167H33.6201C34.1701 11.2 34.6535 12.0333 35.0535 12.9C35.7201 12.8667 36.2535 12.3333 36.2535 11.6667Z" fill="#0ACF83"/>
<path d="M21.25 24.5847H21.75C22.4 24.5847 22.9167 24.0013 22.9167 23.2847C22.9167 22.3847 22.6667 22.2513 22.1 22.0513L21.25 21.7513V24.5847Z" fill="#0ACF83"/>
<path d="M35.0668 12.9C35.0502 12.9 35.0335 12.9167 35.0002 12.9167H28.3335C28.1668 12.9167 28.0168 12.8833 27.8502 12.8167C27.5502 12.6833 27.3002 12.45 27.1668 12.1333C27.1168 11.9833 27.0835 11.8333 27.0835 11.6667V5C27.0835 4.98334 27.1002 4.96667 27.1002 4.93334C24.9335 3.91667 22.5335 3.33334 20.0002 3.33334C10.8002 3.33334 3.3335 10.8 3.3335 20C3.3335 29.2 10.8002 36.6667 20.0002 36.6667C29.2002 36.6667 36.6668 29.2 36.6668 20C36.6668 17.4667 36.0835 15.0667 35.0668 12.9ZM22.9168 19.7C23.9835 20.0667 25.4168 20.85 25.4168 23.3C25.4168 25.3833 23.7668 27.1 21.7502 27.1H21.2502V27.5167C21.2502 28.2 20.6835 28.7667 20.0002 28.7667C19.3168 28.7667 18.7502 28.2 18.7502 27.5167V27.1H18.6168C16.4002 27.1 14.5835 25.2333 14.5835 22.9333C14.5835 22.2333 15.1502 21.6667 15.8335 21.6667C16.5168 21.6667 17.0835 22.2333 17.0835 22.9167C17.0835 23.8333 17.7668 24.5833 18.6168 24.5833H18.7502V20.8833L17.0835 20.3C16.0168 19.9333 14.5835 19.15 14.5835 16.7C14.5835 14.6167 16.2335 12.9 18.2502 12.9H18.7502V12.5C18.7502 11.8167 19.3168 11.25 20.0002 11.25C20.6835 11.25 21.2502 11.8167 21.2502 12.5V12.9167H21.3835C23.6002 12.9167 25.4168 14.7833 25.4168 17.0833C25.4168 17.7667 24.8502 18.3333 24.1668 18.3333C23.4835 18.3333 22.9168 17.7667 22.9168 17.0833C22.9168 16.1667 22.2335 15.4167 21.3835 15.4167H21.2502V19.1167L22.9168 19.7Z" fill="#0ACF83"/>
<path d="M17.0835 16.7167C17.0835 17.6167 17.3335 17.75 17.9002 17.95L18.7502 18.25V15.4167H18.2502C17.6168 15.4167 17.0835 16 17.0835 16.7167Z" fill="#0ACF83"/>
</svg>
