<svg width="44" height="42" viewBox="0 0 44 42" fill="none" xmlns="http://www.w3.org/2000/svg">
<path d="M42.7578 1.22216C41.6574 0.144056 40.0287 -0.257592 38.5101 0.165195L3.09759 9.995C1.49534 10.4199 0.359672 11.6396 0.0537464 13.1892C-0.258782 14.7662 0.832865 16.7681 2.25905 17.6052L13.3318 24.1013C14.4674 24.7672 15.9332 24.6002 16.873 23.6954L29.5524 11.517C30.1907 10.8829 31.2471 10.8829 31.8854 11.517C32.5236 12.1301 32.5236 13.1236 31.8854 13.7578L19.184 25.9383C18.242 26.841 18.0659 28.2467 18.7592 29.3375L25.5248 40.0129C26.3171 41.2813 27.6817 42 29.1783 42C29.3543 42 29.5524 42 29.7285 41.9789C31.4452 41.7675 32.8098 40.6471 33.316 39.0616L43.8143 5.30206C44.2765 3.86458 43.8583 2.30027 42.7578 1.22216Z" fill="#FBFBFB"/>
</svg>
